<svg width="766" height="194" viewBox="0 0 766 194" fill="none" xmlns="http://www.w3.org/2000/svg">
<path d="M284.34 100.515C284.372 101.217 284.392 101.802 284.392 102.27C284.392 107.152 283.488 111.52 281.681 115.367C279.874 119.215 277.352 122.478 274.103 125.15C270.859 127.828 267.044 129.881 262.663 131.318C258.282 132.754 253.485 133.476 248.266 133.476C242.78 133.476 237.678 132.624 232.965 130.915C228.247 129.206 224.139 126.768 220.622 123.59C217.112 120.411 214.369 116.602 212.394 112.15C210.418 107.704 209.436 102.738 209.436 97.2525C209.436 92.1697 210.424 87.4379 212.394 83.057C214.363 78.6762 217.158 74.8608 220.772 71.6174C224.386 68.374 228.611 65.8456 233.466 64.0451C238.315 62.2382 243.547 61.3347 249.169 61.3347C253.446 61.3347 257.483 61.8677 261.259 62.9402C265.035 64.0126 268.415 65.4491 271.392 67.256C274.369 69.063 276.793 71.0389 278.665 73.1773L270.437 82.0041C268.428 80.2686 266.303 78.7801 264.067 77.5387C261.824 76.3037 259.452 75.3158 256.943 74.5813C254.434 73.8468 251.808 73.4763 249.065 73.4763C245.386 73.4763 241.955 74.0808 238.783 75.2833C235.604 76.4857 232.848 78.1627 230.502 80.3011C228.162 82.4395 226.323 84.9485 224.984 87.8279C223.645 90.7073 222.975 93.8467 222.975 97.2591C222.975 100.938 223.658 104.266 225.029 107.243C226.401 110.22 228.305 112.761 230.749 114.867C233.193 116.973 235.981 118.578 239.127 119.683C242.273 120.788 245.614 121.341 249.163 121.341C252.172 121.341 255 120.977 257.639 120.236C260.277 119.501 262.604 118.481 264.613 117.174C266.621 115.868 268.175 114.314 269.28 112.508C270.294 110.85 270.788 109.076 270.814 107.191H248.461V95.6536H283.878C284.015 96.5246 284.112 97.376 284.177 98.2145C284.242 99.053 284.294 99.82 284.327 100.522L284.34 100.515ZM349.104 102.27C348.168 104.61 347.264 106.905 346.393 109.141C345.522 111.383 344.69 113.593 343.884 115.764C343.683 116.303 343.514 116.817 343.325 117.337C343.293 117.246 343.267 117.155 343.234 117.064C342.662 115.426 342.032 113.769 341.33 112.098C340.628 110.428 339.926 108.757 339.224 107.08C338.522 105.41 337.872 103.772 337.267 102.166L320.81 62.2317H306.562L336.364 132.468H349.208L378.905 62.2317H364.456L349.104 102.264V102.27ZM766 97.2525C766 102.335 765.044 107.087 763.14 111.5C761.236 115.913 758.577 119.781 755.165 123.089C751.752 126.398 747.703 128.959 743.023 130.765C738.343 132.572 733.222 133.476 727.671 133.476C722.12 133.476 717.018 132.572 712.37 130.765C707.723 128.959 703.654 126.417 700.177 123.141C696.699 119.865 694.021 116.017 692.149 111.604C690.277 107.191 689.342 102.407 689.342 97.2591C689.342 92.1112 690.277 87.3274 692.149 82.914C694.021 78.5007 696.699 74.6528 700.177 71.3769C703.654 68.101 707.716 65.5596 712.37 63.7526C717.018 61.9457 722.12 61.0422 727.671 61.0422C733.222 61.0422 738.337 61.9457 743.023 63.7526C747.703 65.5596 751.752 68.1205 755.165 71.4289C758.577 74.7373 761.236 78.5852 763.14 82.966C765.044 87.3469 766 92.1112 766 97.2655V97.2525ZM752.753 97.2525C752.753 93.8402 752.136 90.7008 750.894 87.8214C749.653 84.9485 747.918 82.42 745.675 80.2491C743.433 78.0782 740.794 76.4012 737.745 75.2313C734.704 74.0613 731.337 73.4763 727.664 73.4763C723.992 73.4763 720.709 74.0613 717.629 75.2313C714.554 76.4012 711.896 78.0782 709.653 80.2491C707.411 82.4265 705.688 84.9485 704.486 87.8214C703.284 90.7008 702.679 93.8402 702.679 97.2525C702.679 100.665 703.284 103.811 704.486 106.684C705.688 109.563 707.411 112.085 709.653 114.256C711.896 116.433 714.554 118.104 717.629 119.274C720.703 120.444 724.05 121.029 727.664 121.029C731.278 121.029 734.704 120.444 737.745 119.274C740.787 118.104 743.433 116.433 745.675 114.256C747.918 112.085 749.653 109.557 750.894 106.684C752.129 103.811 752.753 100.665 752.753 97.2525ZM435.291 62.2382L465.294 132.475H451.547L444.871 116.823H412.015L405.288 132.475H392.145L422.343 62.2382H435.284H435.291ZM440.036 105.481L433.49 90.1288C433.087 89.0628 432.6 87.7564 432.034 86.2159C431.462 84.6755 430.864 83.057 430.227 81.3476C429.636 79.7616 429.077 78.2407 428.544 76.7652C428.538 76.7847 428.531 76.8107 428.524 76.8302C427.952 78.4032 427.368 79.9761 426.77 81.5491C426.165 83.122 425.567 84.6625 424.963 86.1639C424.358 87.6719 423.825 89.0888 423.357 90.4278L416.89 105.481H440.036ZM643.791 83.304C643.791 85.9104 643.804 88.4388 643.843 90.8828C643.875 93.3267 643.94 95.7186 644.044 98.0585C644.142 100.398 644.278 102.673 644.447 104.883C644.616 107.093 644.798 109.251 645 111.357C645.097 112.397 645.214 113.431 645.344 114.451L601.25 62.2447H589.108V132.481H602.049V105.293C602.049 103.889 602.017 102.433 601.952 100.925C601.887 99.417 601.802 97.883 601.698 96.3101C601.601 94.7371 601.445 93.0342 601.243 91.1947C601.042 89.3553 600.84 87.3339 600.639 85.1239C600.528 83.928 600.418 82.641 600.314 81.2826L644.389 132.481H656.732V62.2447H643.791V83.317V83.304ZM538.065 105.104L555.894 132.572L540.243 132.475L523.889 106.892H507.237V132.475H494.491V62.2382H529.206C533.555 62.2382 537.5 63.2067 541.049 65.1501C544.591 67.0935 547.386 69.7324 549.427 73.0798C551.468 76.4272 552.488 80.2036 552.488 84.4155C552.488 88.6273 551.416 92.3387 549.278 95.7511C547.139 99.1635 544.26 101.874 540.646 103.876C539.807 104.344 538.949 104.747 538.065 105.104ZM507.23 95.5431H528.199C530.272 95.5431 532.125 95.0621 533.769 94.0872C535.407 93.1187 536.713 91.8122 537.682 90.1743C538.65 88.5363 539.138 86.7099 539.138 84.708C539.138 82.706 538.598 80.7951 537.532 79.1896C536.46 77.5842 534.991 76.3167 533.119 75.3743C531.247 74.4383 529.109 73.9703 526.697 73.9703H507.23V95.5431Z" fill="#876430"/>
<path d="M164.802 50.4151L126.551 72.5014C125.992 72.8264 125.296 72.8264 124.737 72.5014L84.6727 49.3687C84.1138 49.0437 83.4183 49.0437 82.8593 49.3687L73.2981 54.8935L48.0334 69.479C47.4744 69.804 46.779 69.804 46.22 69.479L7.96874 47.3927C6.75978 46.6973 6.75978 44.9488 7.96874 44.2468L73.2981 6.52857L82.8593 1.00375C83.4183 0.678762 84.1138 0.678762 84.6727 1.00375L164.809 47.2692C166.018 47.9647 166.018 49.7132 164.809 50.4151H164.802ZM82.8593 145.039L42.7946 121.906C42.2356 121.581 41.8846 120.983 41.8846 120.333V74.0679C41.8846 73.4179 41.5401 72.8199 40.9747 72.4949L2.72341 50.4151C1.51445 49.7197 0 50.5906 0 51.9881V144.519C0 145.169 0.344489 145.767 0.90997 146.092L82.8593 193.404C83.4183 193.729 84.1138 193.729 84.6727 193.404L119.505 173.294C120.064 172.969 120.415 172.371 120.415 171.721V127.555C120.415 126.157 118.901 125.286 117.692 125.982L84.6727 145.039C84.1138 145.364 83.4183 145.364 82.8593 145.039ZM125.647 100.347V166.599C125.647 167.996 127.162 168.867 128.371 168.172L166.622 146.086C167.181 145.761 167.532 145.163 167.532 144.513V122.426C167.532 121.776 167.188 121.178 166.622 120.853L128.371 98.7671C127.162 98.0716 125.647 98.9426 125.647 100.34V100.347ZM104.705 85.111L76.015 68.5495C74.8061 67.8541 73.2916 68.725 73.2916 70.1225V124.285C73.2916 125.683 74.8061 126.554 76.015 125.858L122.917 98.7736C124.126 98.0781 124.126 96.3296 122.917 95.6277L104.705 85.111Z" fill="url(#paint0_linear_129_30)"/>
<defs>
<linearGradient id="paint0_linear_129_30" x1="37.8622" y1="23.7144" x2="130.387" y2="169.913" gradientUnits="userSpaceOnUse">
<stop stop-color="#D9BB70"/>
<stop offset="1" stop-color="#876430"/>
</linearGradient>
</defs>
</svg>
